<svg width="32" height="24" viewBox="0 0 32 24" fill="none" xmlns="http://www.w3.org/2000/svg">
<path d="M24.1643 2.97019C24.6422 2.97019 25.0309 2.58141 25.0309 2.10366V0H21.6902V0.743531H24.2873V2.10361C24.2873 2.17031 24.231 2.22666 24.1643 2.22666H7.95833C7.95833 2.22666 7.71223 2.17031 7.71223 2.10361V0.743531H20.4532V0H6.96875V2.10361C6.96875 2.58145 7.35753 2.97014 7.83528 2.97014H7.95833V21.0298H7.83528C7.35744 21.0298 6.96875 21.4185 6.96875 21.8963V24H9.81434V23.2565H7.71228V21.8963C7.71228 21.8296 7.76862 21.7733 7.83533 21.7733H24.1644C24.2311 21.7733 24.2874 21.8296 24.2874 21.8963V23.2564H10.8042V24H25.0309V21.8964C25.0309 21.4185 24.6421 21.0298 24.1644 21.0298H24.0413V2.97019H24.1643ZM23.2978 19.2979H13.0309V20.0414H23.2978V21.0298H8.70186V4.70203H18.9687V3.9585H8.70186V2.97019H23.2978V19.2979Z" fill="black"/>
<path d="M21.6901 3.9585H20.2056V4.70203H21.6901V3.9585Z" fill="black"/>
<path d="M11.7938 19.2979H10.3093V20.0414H11.7938V19.2979Z" fill="black"/>
<path d="M15.9998 6.18516V6.92869C18.7961 6.92873 21.071 9.20372 21.071 12C21.071 13.1031 20.7239 14.1514 20.0671 15.0315C19.4319 15.8827 18.5265 16.5253 17.5178 16.8407L17.7397 17.5503C18.9134 17.1833 19.9242 16.466 20.663 15.4761C21.4163 14.4666 21.8145 13.2646 21.8145 12C21.8146 8.7937 19.2061 6.18516 15.9998 6.18516Z" fill="black"/>
<path d="M10.9286 12C10.9286 10.9579 11.2414 9.95723 11.8332 9.10631C12.4119 8.27419 13.2149 7.64053 14.1555 7.27373L13.8854 6.58102C12.8068 7.00158 11.8861 7.72809 11.2228 8.68177C10.544 9.65798 10.1851 10.8053 10.1851 12C10.1851 15.2062 12.7935 17.8148 15.9999 17.8148V17.0712C13.2035 17.0712 10.9286 14.7962 10.9286 12Z" fill="black"/>
<path d="M16.2468 8.25839L15.9998 8.03888L15.7529 8.25839C15.6564 8.34413 13.3932 10.383 13.6728 12.4961C13.8041 13.4889 14.4618 14.3124 15.6281 14.9466V16.206H16.3716V14.9466C17.5379 14.3124 18.1956 13.4889 18.3269 12.4961C18.6064 10.383 16.3432 8.34417 16.2468 8.25839ZM17.5896 12.4002C17.504 13.0441 17.0945 13.6076 16.3716 14.0812V10.5155H15.6281V14.0812C14.9052 13.6076 14.4957 13.0441 14.41 12.4002C14.2297 11.0452 15.4584 9.61299 15.9998 9.05555C16.5414 9.61308 17.77 11.0452 17.5896 12.4002Z" fill="black"/>
<path d="M19.5866 12C19.5866 13.1881 18.9998 14.2979 18.017 14.9686L18.4361 15.5828C19.6221 14.7734 20.3301 13.434 20.3301 12H19.5866Z" fill="black"/>
<path d="M13.5635 8.4172C12.3776 9.22659 11.6695 10.566 11.6695 12H12.413C12.413 10.8119 12.9998 9.70214 13.9827 9.03136L13.5635 8.4172Z" fill="black"/>
<path d="M10.5569 5.69044H9.56731V6.43397H10.5569V5.69044Z" fill="black"/>
<path d="M22.4325 5.69044H21.4429V6.43397H22.4325V5.69044Z" fill="black"/>
<path d="M10.5569 17.5659H9.56731V18.3095H10.5569V17.5659Z" fill="black"/>
<path d="M22.4325 17.5659H21.4429V18.3095H22.4325V17.5659Z" fill="black"/>
</svg>
