<svg width="32" height="24" viewBox="0 0 32 24" fill="none" xmlns="http://www.w3.org/2000/svg">
<path fill-rule="evenodd" clip-rule="evenodd" d="M18.15 4.44684H8.25586C7.70357 4.44684 7.25586 4.89455 7.25586 5.44684V21.9426C7.25586 22.4949 7.70357 22.9426 8.25586 22.9426H23.7446C24.2969 22.9426 24.7446 22.4949 24.7446 21.9426V11.101C24.7446 10.8376 24.6407 10.5849 24.4555 10.3977L18.8609 4.74349C18.6731 4.55366 18.4171 4.44684 18.15 4.44684ZM8.25586 3.44684C7.15129 3.44684 6.25586 4.34227 6.25586 5.44684V21.9426C6.25586 23.0471 7.15129 23.9426 8.25586 23.9426H23.7446C24.8492 23.9426 25.7446 23.0471 25.7446 21.9426V11.101C25.7446 10.5743 25.5368 10.0688 25.1663 9.69432L19.5717 4.04014C19.1961 3.66047 18.6842 3.44684 18.15 3.44684H8.25586Z" fill="black"/>
<path fill-rule="evenodd" clip-rule="evenodd" d="M8.24194 1.55743C8.24194 0.729007 8.91352 0.0574341 9.74194 0.0574341H14.3391C15.1675 0.0574341 15.8391 0.729007 15.8391 1.55743V4.09418H14.8391V1.55743C14.8391 1.28129 14.6153 1.05743 14.3391 1.05743H9.74194C9.4658 1.05743 9.24194 1.28129 9.24194 1.55743V4.09418H8.24194V1.55743Z" fill="black"/>
<path fill-rule="evenodd" clip-rule="evenodd" d="M21.6624 11.7248L17.2572 7.31962C17.0743 7.13671 16.7777 7.13671 16.5948 7.31962C16.4119 7.50254 16.4119 7.7991 16.5948 7.98202L21 12.3872C21.1829 12.5701 21.4795 12.5701 21.6624 12.3872C21.8453 12.2043 21.8453 11.9077 21.6624 11.7248ZM15.8877 6.61251C15.3142 7.18595 15.3142 8.11568 15.8877 8.68912L20.2929 13.0943C20.8663 13.6678 21.796 13.6678 22.3695 13.0943C22.9429 12.5209 22.9429 11.5912 22.3695 11.0177L17.9643 6.61251C17.3908 6.03907 16.4611 6.03907 15.8877 6.61251Z" fill="black"/>
<path fill-rule="evenodd" clip-rule="evenodd" d="M14.2675 12.9696L12.2045 15.8215C11.4836 16.8182 11.5783 18.1877 12.4295 19.0757C13.4318 20.1212 15.1032 20.1212 16.1054 19.0757C16.9566 18.1877 17.0513 16.8182 16.3304 15.8215L14.2675 12.9696ZM14.2675 14.6758L13.0148 16.4076C12.577 17.0128 12.6345 17.8444 13.1514 18.3836C13.76 19.0186 14.7749 19.0186 15.3836 18.3836C15.9004 17.8444 15.9579 17.0128 15.5202 16.4076L14.2675 14.6758Z" fill="black"/>
</svg>
