<svg width="25" height="24" viewBox="0 0 25 24" fill="none" xmlns="http://www.w3.org/2000/svg">
<g clip-path="url(#clip0_94_612)">
<path d="M14.7897 12.5923C17.7206 12.5445 20.4609 11.0951 22.1429 8.69285C23.8659 6.23219 24.2704 3.07889 23.2248 0.257821C23.1695 0.108408 23.0273 0.00888484 22.868 0.00791463L22.8141 0.0078125C19.8269 0.0078125 17.0223 1.4664 15.3116 3.90955C13.6274 6.31476 13.2039 9.3816 14.1621 12.1532L12.8101 14.084L11.4581 12.1532C12.4164 9.38155 11.9928 6.31476 10.3087 3.90955C8.59796 1.4664 5.79333 0.0078125 2.80615 0.0078125L2.75238 0.00796569C2.59301 0.0089359 2.4509 0.108408 2.39549 0.257872C1.34996 3.07894 1.75433 6.23224 3.47733 8.6929C5.15948 11.0953 7.89951 12.5446 10.8306 12.5924L12.4271 14.8725V19.1435C9.09818 19.2529 6.00433 20.7839 3.89059 23.3833C3.75716 23.5474 3.78203 23.7886 3.9461 23.922C4.11016 24.0555 4.35139 24.0306 4.48487 23.8665C6.5334 21.3474 9.56787 19.9026 12.8102 19.9026C16.0525 19.9026 19.0869 21.3474 21.1355 23.8665C21.2111 23.9596 21.3215 24.0079 21.4328 24.0079C21.5177 24.0079 21.6032 23.9798 21.6742 23.922C21.8383 23.7886 21.8632 23.5474 21.7297 23.3833C19.6159 20.7838 16.522 19.2529 13.1931 19.1435V14.8725L14.7897 12.5923ZM15.939 4.34885C17.4647 2.16996 19.9404 0.845668 22.5956 0.776578C23.4393 3.29607 23.0429 6.07205 21.5155 8.2535C20.0833 10.2988 17.8142 11.5909 15.3453 11.7989L17.8984 8.15275L20.8661 7.62945C21.0745 7.59273 21.2135 7.39409 21.1768 7.1858C21.1401 6.97751 20.9416 6.83857 20.7332 6.87513L18.5197 7.26546L22.0507 2.22286C22.172 2.0496 22.1299 1.81083 21.9566 1.6895C21.7833 1.56817 21.5446 1.6103 21.4233 1.78356L17.8922 6.82632L17.5019 4.6127C17.4651 4.40441 17.2667 4.26531 17.0582 4.30203C16.8499 4.33874 16.7108 4.53738 16.7475 4.74567L17.2709 7.7136L14.7178 11.3597C14.0681 8.96814 14.5052 6.39661 15.939 4.34885ZM4.10475 8.25355C2.57728 6.07205 2.18092 3.29612 3.0246 0.77663C5.67982 0.845719 8.15554 2.17001 9.68123 4.3489C11.1151 6.39666 11.5521 8.96819 10.9025 11.3597L8.34938 7.7136L8.87274 4.74567C8.90945 4.53738 8.77035 4.33874 8.56206 4.30203C8.35393 4.26526 8.15513 4.40436 8.11842 4.6127L7.72809 6.82632L4.19702 1.78356C4.07575 1.61025 3.83687 1.56822 3.66366 1.6895C3.4904 1.81083 3.44827 2.0496 3.5696 2.22286L7.10056 7.26546L4.8871 6.87513C4.67902 6.83837 4.48017 6.97746 4.44346 7.1858C4.40674 7.39409 4.54579 7.59273 4.75413 7.62945L7.72191 8.15275L10.275 11.7989C7.80601 11.5909 5.53689 10.2988 4.10475 8.25355Z" fill="black"/>
<path d="M15.3519 20.9832C15.1266 20.9832 14.9434 21.1664 14.9434 21.3917C14.9434 21.6169 15.1266 21.8002 15.3519 21.8002C15.5771 21.8002 15.7604 21.6169 15.7604 21.3917C15.7604 21.1664 15.5771 20.9832 15.3519 20.9832Z" fill="black"/>
<path d="M17.2913 21.7527C17.0661 21.7527 16.8828 21.936 16.8828 22.1612C16.8828 22.3864 17.0661 22.5697 17.2913 22.5697C17.5166 22.5697 17.6998 22.3864 17.6998 22.1612C17.6998 21.936 17.5166 21.7527 17.2913 21.7527Z" fill="black"/>
<path d="M8.32892 21.7527C8.10368 21.7527 7.92041 21.936 7.92041 22.1612C7.92041 22.3864 8.10368 22.5697 8.32892 22.5697C8.55416 22.5697 8.73743 22.3864 8.73743 22.1612C8.73743 21.936 8.55416 21.7527 8.32892 21.7527Z" fill="black"/>
</g>
<defs>
<clipPath id="clip0_94_612">
<rect width="24" height="24" fill="white" transform="translate(0.810059 0.0078125)"/>
</clipPath>
</defs>
</svg>
