<svg width="32" height="24" viewBox="0 0 32 24" fill="none" xmlns="http://www.w3.org/2000/svg">
<path fill-rule="evenodd" clip-rule="evenodd" d="M0 19.6562C0 20.3631 0.573076 20.9362 1.28 20.9362H8.60444C8.95791 20.9362 9.24444 20.6497 9.24444 20.2962C9.24444 19.9428 8.95791 19.6562 8.60444 19.6562H1.28V18.6607H30.72V19.6562H23.3956C23.0421 19.6562 22.7556 19.9428 22.7556 20.2962C22.7556 20.6497 23.0421 20.9362 23.3956 20.9362H30.72C31.4269 20.9362 32 20.3631 32 19.6562V18.6607C32 17.9537 31.4269 17.3807 30.72 17.3807H1.28C0.573074 17.3807 0 17.9537 0 18.6607V19.6562Z" fill="#1E1E1E"/>
<path fill-rule="evenodd" clip-rule="evenodd" d="M0 20.9362C0 20.2293 0.573076 19.6562 1.28 19.6562H8.60444C8.95791 19.6562 9.24444 19.9428 9.24444 20.2962C9.24444 20.6497 8.95791 20.9362 8.60444 20.9362H1.28V21.9318L30.72 21.9318V20.9362H23.3956C23.0421 20.9362 22.7556 20.6497 22.7556 20.2962C22.7556 19.9428 23.0421 19.6562 23.3956 19.6562H30.72C31.4269 19.6562 32 20.2293 32 20.9362V21.9318C32 22.6387 31.4269 23.2118 30.72 23.2118H1.28C0.573074 23.2118 0 22.6387 0 21.9318V20.9362Z" fill="#1E1E1E"/>
<path fill-rule="evenodd" clip-rule="evenodd" d="M12.4885 10.8069C14.4947 9.39298 17.1765 9.40562 19.1693 10.8384L22.2794 13.0746C22.5664 13.281 22.6318 13.6809 22.4255 13.9679C22.2191 14.2549 21.8192 14.3202 21.5322 14.1139L18.4221 11.8777C16.8721 10.7633 14.7863 10.7534 13.2259 11.8532L12.3656 12.4595L8.90239 15.1936L4.8391 18.4512C4.56332 18.6723 4.16053 18.628 3.93943 18.3522C3.71834 18.0764 3.76267 17.6736 4.03845 17.4525L8.10734 14.1905L11.5998 11.4333L12.4885 10.8069ZM23.798 14.8646C24.0268 14.5951 24.4307 14.5621 24.7001 14.7908L27.8493 17.4639C28.1188 17.6927 28.1518 18.0966 27.9231 18.366C27.6943 18.6355 27.2905 18.6685 27.021 18.4398L23.8718 15.7666C23.6023 15.5379 23.5693 15.134 23.798 14.8646Z" fill="#1E1E1E"/>
<path fill-rule="evenodd" clip-rule="evenodd" d="M22.6481 3.2221C20.9107 1.65442 18.2594 1.688 16.5623 3.29918L13.4076 6.29416L12.5262 5.36592L12.8382 5.06975L12.8426 5.06563L15.681 2.37088C17.8631 0.299369 21.2718 0.256201 23.5056 2.27179L25.031 3.64821C25.2934 3.88501 25.3142 4.2897 25.0774 4.55212C24.8406 4.81454 24.4359 4.83532 24.1735 4.59853L22.6481 3.2221ZM26.3948 5.943C26.6466 5.69494 27.0518 5.69798 27.2998 5.94979L30.6623 9.36312C30.9104 9.61492 30.9074 10.0201 30.6555 10.2682C30.4037 10.5162 29.9985 10.5132 29.7505 10.2614L26.388 6.84807C26.1399 6.59627 26.143 6.19105 26.3948 5.943Z" fill="#1E1E1E"/>
<path d="M22.7347 5.96436C22.7347 6.27855 22.48 6.53325 22.1658 6.53325C21.8516 6.53325 21.5969 6.27855 21.5969 5.96436C21.5969 5.65017 21.8516 5.39547 22.1658 5.39547C22.48 5.39547 22.7347 5.65017 22.7347 5.96436Z" fill="#1E1E1E"/>
<path d="M25.4147 7.66643C25.4147 7.98062 25.16 8.23532 24.8458 8.23532C24.5316 8.23532 24.2769 7.98062 24.2769 7.66643C24.2769 7.35224 24.5316 7.09754 24.8458 7.09754C25.16 7.09754 25.4147 7.35224 25.4147 7.66643Z" fill="#1E1E1E"/>
<path d="M18.4253 5.96436C18.4253 6.27855 18.1706 6.53325 17.8564 6.53325C17.5422 6.53325 17.2875 6.27855 17.2875 5.96436C17.2875 5.65017 17.5422 5.39547 17.8564 5.39547C18.1706 5.39547 18.4253 5.65017 18.4253 5.96436Z" fill="#1E1E1E"/>
<path d="M20.2884 4.12339C20.2884 4.43757 20.0337 4.69227 19.7195 4.69227C19.4053 4.69227 19.1506 4.43757 19.1506 4.12339C19.1506 3.8092 19.4053 3.5545 19.7195 3.5545C20.0337 3.5545 20.2884 3.8092 20.2884 4.12339Z" fill="#1E1E1E"/>
<path fill-rule="evenodd" clip-rule="evenodd" d="M14.4624 7.26533C12.7029 5.58106 9.92018 5.61107 8.19745 7.3329L5.40595 10.1229L1.21046 14.4205C0.963542 14.6734 0.558345 14.6783 0.305424 14.4314C0.0525023 14.1845 0.047632 13.7793 0.294546 13.5264L4.49828 9.22034L7.29259 6.42756C9.50753 4.21379 13.0853 4.1752 15.3475 6.34069L18.3485 9.21341L22.3805 13.1203C22.6343 13.3662 22.6407 13.7714 22.3948 14.0252C22.1488 14.2791 21.7436 14.2855 21.4898 14.0395L17.4605 10.1354L17.4578 10.1327L14.4624 7.26533Z" fill="#1E1E1E"/>
<path d="M14.0428 8.21975C14.0428 8.53394 13.7881 8.78864 13.4739 8.78864C13.1597 8.78864 12.905 8.53394 12.905 8.21975C12.905 7.90556 13.1597 7.65086 13.4739 7.65086C13.7881 7.65086 14.0428 7.90556 14.0428 8.21975Z" fill="#1E1E1E"/>
<path d="M9.21528 8.21975C9.21528 8.53394 8.96058 8.78864 8.64639 8.78864C8.3322 8.78864 8.0775 8.53394 8.0775 8.21975C8.0775 7.90556 8.3322 7.65086 8.64639 7.65086C8.96058 7.65086 9.21528 7.90556 9.21528 8.21975Z" fill="#1E1E1E"/>
<path d="M11.5965 7.08194C11.5965 7.39613 11.3418 7.65083 11.0276 7.65083C10.7135 7.65083 10.4587 7.39613 10.4587 7.08194C10.4587 6.76775 10.7135 6.51305 11.0276 6.51305C11.3418 6.51305 11.5965 6.76775 11.5965 7.08194Z" fill="#1E1E1E"/>
<path d="M14.0847 14.3747C14.0847 14.6889 13.83 14.9436 13.5158 14.9436C13.2016 14.9436 12.9469 14.6889 12.9469 14.3747C12.9469 14.0605 13.2016 13.8058 13.5158 13.8058C13.83 13.8058 14.0847 14.0605 14.0847 14.3747Z" fill="#1E1E1E"/>
<path d="M16.545 16.5334C16.545 16.8476 16.2903 17.1023 15.9761 17.1023C15.6619 17.1023 15.4072 16.8476 15.4072 16.5334C15.4072 16.2192 15.6619 15.9645 15.9761 15.9645C16.2903 15.9645 16.545 16.2192 16.545 16.5334Z" fill="#1E1E1E"/>
<path d="M18.8606 14.3748C18.8606 14.689 18.6059 14.9437 18.2917 14.9437C17.9775 14.9437 17.7228 14.689 17.7228 14.3748C17.7228 14.0606 17.9775 13.8059 18.2917 13.8059C18.6059 13.8059 18.8606 14.0606 18.8606 14.3748Z" fill="#1E1E1E"/>
<path d="M21.3417 16.5334C21.3417 16.8476 21.087 17.1023 20.7728 17.1023C20.4586 17.1023 20.2039 16.8476 20.2039 16.5334C20.2039 16.2192 20.4586 15.9645 20.7728 15.9645C21.087 15.9645 21.3417 16.2192 21.3417 16.5334Z" fill="#1E1E1E"/>
<path d="M11.5544 16.5334C11.5544 16.8476 11.2997 17.1023 10.9856 17.1023C10.6714 17.1023 10.4167 16.8476 10.4167 16.5334C10.4167 16.2193 10.6714 15.9646 10.9856 15.9646C11.2997 15.9646 11.5544 16.2193 11.5544 16.5334Z" fill="#1E1E1E"/>
</svg>
