<svg width="22" height="22" viewBox="0 0 22 22" fill="none" xmlns="http://www.w3.org/2000/svg">
<path d="M20.1667 5.04163H8.25C7.24167 5.04163 6.41667 5.86663 6.41667 6.87496V15.125C6.41667 15.6112 6.60982 16.0775 6.95364 16.4213C7.29745 16.7651 7.76377 16.9583 8.25 16.9583H20.1667C21.1842 16.9583 22 16.1425 22 15.125V6.87496C22 6.38873 21.8068 5.92241 21.463 5.5786C21.1192 5.23478 20.6529 5.04163 20.1667 5.04163ZM20.1667 15.125H8.25V8.40579L14.2083 11.4583L20.1667 8.40579V15.125ZM14.2083 9.90913L8.25 6.87496H20.1667L14.2083 9.90913ZM4.58333 15.125C4.58333 15.2808 4.61083 15.4275 4.62917 15.5833H0.916667C0.410667 15.5833 0 15.1708 0 14.6666C0 14.1625 0.410667 13.75 0.916667 13.75H4.58333V15.125ZM2.75 6.41663H4.62917C4.61083 6.57246 4.58333 6.71913 4.58333 6.87496V8.24996H2.75C2.24583 8.24996 1.83333 7.83746 1.83333 7.33329C1.83333 6.82913 2.24583 6.41663 2.75 6.41663ZM0.916667 11C0.916667 10.4958 1.32917 10.0833 1.83333 10.0833H4.58333V11.9166H1.83333C1.32917 11.9166 0.916667 11.5041 0.916667 11Z" fill="#7A7B7D"/>
</svg>
