<svg width="22" height="22" viewBox="0 0 22 22" fill="none" xmlns="http://www.w3.org/2000/svg">
<path d="M3.66602 19.6167V2.38333C3.66602 2.23746 3.72396 2.09756 3.82711 1.99442C3.93025 1.89127 4.07015 1.83333 4.21602 1.83333H14.897C15.0428 1.83346 15.1826 1.89149 15.2857 1.99466L18.1713 4.88033C18.2227 4.93157 18.2633 4.99245 18.291 5.05947C18.3187 5.12649 18.3329 5.19832 18.3327 5.27083V19.6167C18.3327 19.6889 18.3185 19.7604 18.2908 19.8271C18.2632 19.8939 18.2227 19.9545 18.1716 20.0056C18.1205 20.0566 18.0599 20.0972 17.9932 20.1248C17.9264 20.1524 17.8549 20.1667 17.7827 20.1667H4.21602C4.14379 20.1667 4.07227 20.1524 4.00554 20.1248C3.93881 20.0972 3.87818 20.0566 3.82711 20.0056C3.77603 19.9545 3.73552 19.8939 3.70788 19.8271C3.68024 19.7604 3.66602 19.6889 3.66602 19.6167Z" stroke="#7A7B7D" stroke-width="1.5" stroke-linecap="round" stroke-linejoin="round"/>
<path d="M14.6655 1.83333V4.95C14.6655 5.09586 14.7234 5.23576 14.8266 5.3389C14.9297 5.44205 15.0696 5.49999 15.2155 5.49999H18.3321M9.74754 9.54708L10.7 7.52766C10.7257 7.46994 10.7677 7.42091 10.8207 7.38651C10.8737 7.3521 10.9356 7.3338 10.9988 7.3338C11.062 7.3338 11.1239 7.3521 11.1769 7.38651C11.2299 7.42091 11.2719 7.46994 11.2976 7.52766L12.251 9.54708L14.3804 9.87341C14.6535 9.91466 14.7617 10.2667 14.5637 10.4683L13.0237 12.0386L13.3867 14.2578C13.4335 14.5429 13.1484 14.7602 12.9036 14.6254L10.9988 13.5777L9.09396 14.6254C8.84921 14.7602 8.56413 14.5429 8.61088 14.2587L8.97388 12.0386L7.43388 10.4683C7.23496 10.2667 7.34404 9.91466 7.61721 9.8725L9.74754 9.54708Z" stroke="#7A7B7D" stroke-width="1.5" stroke-linecap="round" stroke-linejoin="round"/>
</svg>
