<svg width="22" height="22" viewBox="0 0 22 22" fill="none" xmlns="http://www.w3.org/2000/svg">
<path d="M8.25 4.12513H7.33333C5.17275 4.12513 4.092 4.12513 3.421 4.79613C2.75 5.46713 2.75 6.54788 2.75 8.70846V9.1668M8.25 17.8751H7.33333C5.17275 17.8751 4.092 17.8751 3.421 17.2041C2.75 16.5322 2.75 15.4524 2.75 13.2918V12.8335M12.5198 2.15155C10.538 1.80596 9.54708 1.63363 8.899 2.20838C8.25 2.78313 8.25 3.83455 8.25 5.93646V16.0638C8.25 18.1657 8.25 19.2171 8.89808 19.7919C9.54617 20.3666 10.5371 20.1943 12.5189 19.8487L14.6548 19.4765C16.8493 19.0934 17.9465 18.9018 18.5982 18.097C19.25 17.2912 19.25 16.127 19.25 13.7978V8.20246C19.25 5.87413 19.25 4.70996 18.5992 3.90421C18.1628 3.36613 17.5285 3.10213 16.5 2.87205M11 10.0835V11.9168" stroke="black" stroke-width="1.5" stroke-linecap="round"/>
</svg>
