<svg width="22" height="22" viewBox="0 0 22 22" fill="none" xmlns="http://www.w3.org/2000/svg">
<path d="M11.0001 10.0833C10.757 10.0833 10.5238 10.1798 10.3519 10.3517C10.18 10.5236 10.0835 10.7568 10.0835 10.9999V13.7499C10.0835 13.993 10.18 14.2262 10.3519 14.3981C10.5238 14.57 10.757 14.6666 11.0001 14.6666C11.2432 14.6666 11.4764 14.57 11.6483 14.3981C11.8202 14.2262 11.9168 13.993 11.9168 13.7499V10.9999C11.9168 10.7568 11.8202 10.5236 11.6483 10.3517C11.4764 10.1798 11.2432 10.0833 11.0001 10.0833ZM11.0001 7.33325C10.8188 7.33325 10.6416 7.38701 10.4908 7.48774C10.3401 7.58846 10.2226 7.73163 10.1532 7.89913C10.0839 8.06662 10.0657 8.25094 10.1011 8.42875C10.1364 8.60657 10.2237 8.7699 10.3519 8.8981C10.4801 9.0263 10.6435 9.1136 10.8213 9.14897C10.9991 9.18434 11.1834 9.16619 11.3509 9.09681C11.5184 9.02743 11.6616 8.90994 11.7623 8.75919C11.863 8.60845 11.9168 8.43122 11.9168 8.24992C11.9168 8.0068 11.8202 7.77365 11.6483 7.60174C11.4764 7.42983 11.2432 7.33325 11.0001 7.33325ZM11.0001 1.83325C9.79634 1.83325 8.60434 2.07035 7.49219 2.53102C6.38004 2.99169 5.36951 3.6669 4.51831 4.51811C2.79923 6.23719 1.83345 8.56877 1.83345 10.9999C1.82544 13.1166 2.55835 15.1694 3.90512 16.8024L2.07179 18.6358C1.94459 18.7647 1.85843 18.9283 1.82417 19.1062C1.78991 19.284 1.80909 19.468 1.87929 19.6349C1.95542 19.7999 2.07885 19.9384 2.2339 20.0331C2.38894 20.1278 2.56862 20.1742 2.75012 20.1666H11.0001C13.4313 20.1666 15.7628 19.2008 17.4819 17.4817C19.201 15.7626 20.1668 13.4311 20.1668 10.9999C20.1668 8.56877 19.201 6.23719 17.4819 4.51811C15.7628 2.79902 13.4313 1.83325 11.0001 1.83325ZM11.0001 18.3333H4.95929L5.81179 17.4808C5.8984 17.3959 5.96731 17.2946 6.01451 17.1829C6.06172 17.0712 6.08628 16.9512 6.08679 16.8299C6.08334 16.5881 5.9845 16.3575 5.81179 16.1883C4.61149 14.9893 3.86403 13.4112 3.69675 11.723C3.52948 10.0347 3.95274 8.34067 4.89441 6.92948C5.83609 5.51829 7.23793 4.47725 8.86109 3.98373C10.4843 3.49021 12.2283 3.57474 13.7962 4.22292C15.364 4.87111 16.6586 6.04284 17.4594 7.53849C18.2601 9.03413 18.5176 10.7612 18.1878 12.4253C17.8581 14.0895 16.9615 15.5879 15.6509 16.6651C14.3402 17.7424 12.6967 18.3319 11.0001 18.3333Z" fill="#7A7B7D"/>
</svg>
