<svg width="16" height="16" viewBox="0 0 16 16" fill="none" xmlns="http://www.w3.org/2000/svg">
<path d="M7.91667 11.875C8.14097 11.875 8.32912 11.799 8.48112 11.647C8.6326 11.4955 8.70833 11.3076 8.70833 11.0833V7.89687C8.70833 7.67257 8.6326 7.48785 8.48112 7.34271C8.32912 7.19757 8.14097 7.125 7.91667 7.125C7.69236 7.125 7.50447 7.20074 7.353 7.35221C7.201 7.50421 7.125 7.69236 7.125 7.91667V11.1031C7.125 11.3274 7.201 11.5122 7.353 11.6573C7.50447 11.8024 7.69236 11.875 7.91667 11.875ZM7.91667 5.54167C8.14097 5.54167 8.32912 5.46567 8.48112 5.31367C8.6326 5.16219 8.70833 4.97431 8.70833 4.75C8.70833 4.52569 8.6326 4.33754 8.48112 4.18554C8.32912 4.03407 8.14097 3.95833 7.91667 3.95833C7.69236 3.95833 7.50447 4.03407 7.353 4.18554C7.201 4.33754 7.125 4.52569 7.125 4.75C7.125 4.97431 7.201 5.16219 7.353 5.31367C7.50447 5.46567 7.69236 5.54167 7.91667 5.54167ZM7.91667 15.8333C6.82153 15.8333 5.79236 15.6254 4.82917 15.2095C3.86597 14.7941 3.02812 14.2302 2.31563 13.5177C1.60313 12.8052 1.03919 11.9674 0.623833 11.0042C0.207945 10.041 0 9.01181 0 7.91667C0 6.82153 0.207945 5.79236 0.623833 4.82917C1.03919 3.86597 1.60313 3.02812 2.31563 2.31563C3.02812 1.60313 3.86597 1.03893 4.82917 0.623042C5.79236 0.20768 6.82153 0 7.91667 0C9.01181 0 10.041 0.20768 11.0042 0.623042C11.9674 1.03893 12.8052 1.60313 13.5177 2.31563C14.2302 3.02812 14.7941 3.86597 15.2095 4.82917C15.6254 5.79236 15.8333 6.82153 15.8333 7.91667C15.8333 9.01181 15.6254 10.041 15.2095 11.0042C14.7941 11.9674 14.2302 12.8052 13.5177 13.5177C12.8052 14.2302 11.9674 14.7941 11.0042 15.2095C10.041 15.6254 9.01181 15.8333 7.91667 15.8333ZM7.91667 14.25C9.67153 14.25 11.1659 13.6333 12.3999 12.3999C13.6333 11.1659 14.25 9.67153 14.25 7.91667C14.25 6.16181 13.6333 4.6674 12.3999 3.43346C11.1659 2.20004 9.67153 1.58333 7.91667 1.58333C6.16181 1.58333 4.66767 2.20004 3.43425 3.43346C2.20031 4.6674 1.58333 6.16181 1.58333 7.91667C1.58333 9.67153 2.20031 11.1659 3.43425 12.3999C4.66767 13.6333 6.16181 14.25 7.91667 14.25Z" fill="#58DB8F"/>
</svg>
