<svg width="22" height="22" viewBox="0 0 22 22" fill="none" xmlns="http://www.w3.org/2000/svg">
<path d="M1.83398 11.0002C1.83398 16.0629 5.9379 20.1668 11.0007 20.1668C16.0634 20.1668 20.1673 16.0629 20.1673 11.0002C20.1673 5.93741 16.0634 1.8335 11.0007 1.8335C5.9379 1.8335 1.83398 5.93741 1.83398 11.0002Z" stroke="#7A7B7D" stroke-width="1.5" stroke-linecap="round" stroke-linejoin="round"/>
<path d="M11.9179 1.87939C11.9179 1.87939 14.6679 5.50023 14.6679 11.0002C14.6679 16.5002 11.9179 20.1211 11.9179 20.1211M10.0846 20.1211C10.0846 20.1211 7.33461 16.5002 7.33461 11.0002C7.33461 5.50023 10.0846 1.87939 10.0846 1.87939M2.41211 14.2086H19.5904M2.41211 7.79189H19.5904" stroke="#7A7B7D" stroke-width="1.5" stroke-linecap="round" stroke-linejoin="round"/>
</svg>
