<svg width="22" height="22" viewBox="0 0 22 22" fill="none" xmlns="http://www.w3.org/2000/svg">
<path d="M11.9166 17.4166C11.9166 17.9014 11.5626 18.3333 11.0778 18.3333H3.66659C3.18035 18.3333 2.71404 18.1401 2.37022 17.7963C2.02641 17.4525 1.83325 16.9862 1.83325 16.5V5.49996C1.83325 4.48246 2.64909 3.66663 3.66659 3.66663H9.16658L10.9999 5.49996H18.3333C18.8195 5.49996 19.2858 5.69311 19.6296 6.03693C19.9734 6.38075 20.1666 6.84706 20.1666 7.33329V11.3396C20.1666 11.927 19.5276 12.3135 18.964 12.1479C18.6093 12.0436 18.3333 11.7302 18.3333 11.3605V7.33329H3.66659V16.5H11.0778C11.5626 16.5 11.9166 16.9318 11.9166 17.4166ZM20.1447 15.2288C19.8322 14.8489 19.2604 14.8212 18.9126 15.169L16.2708 17.8108L15.3565 16.8965C15.0565 16.5965 14.57 16.5965 14.27 16.8965C13.9792 17.1873 13.969 17.6556 14.2469 17.9588L16.2708 20.1666L20.0905 16.3469C20.3937 16.0437 20.4171 15.5599 20.1447 15.2288Z" fill="#7A7B7D"/>
</svg>
