<svg width="22" height="22" viewBox="0 0 22 22" fill="none" xmlns="http://www.w3.org/2000/svg">
<path d="M19.033 11.4662C19.3939 10.9892 19.5938 10.4049 19.5938 9.79684C19.5938 8.83219 19.0545 7.91911 18.1865 7.40993C17.9631 7.27886 17.7087 7.20988 17.4496 7.21012H12.2977L12.4266 4.56969C12.4566 3.93161 12.2311 3.32575 11.7928 2.86383C11.5777 2.63616 11.3182 2.45501 11.0303 2.33159C10.7425 2.20817 10.4323 2.14509 10.1191 2.14626C9.00195 2.14626 8.01367 2.89821 7.71719 3.97458L5.87168 10.6562H3.09375C2.71348 10.6562 2.40625 10.9634 2.40625 11.3437V19.164C2.40625 19.5443 2.71348 19.8515 3.09375 19.8515H16.0123C16.21 19.8515 16.4033 19.8129 16.5816 19.7355C17.6043 19.2994 18.2639 18.3004 18.2639 17.1918C18.2639 16.9211 18.2252 16.6547 18.1479 16.3968C18.5088 15.9199 18.7086 15.3355 18.7086 14.7275C18.7086 14.4568 18.6699 14.1904 18.5926 13.9326C18.9535 13.4556 19.1533 12.8713 19.1533 12.2632C19.149 11.9925 19.1104 11.724 19.033 11.4662ZM3.95312 18.3047V12.2031H5.69336V18.3047H3.95312ZM17.6258 10.7207L17.1553 11.1289L17.4539 11.6746C17.5523 11.8543 17.6033 12.0562 17.6021 12.2611C17.6021 12.6156 17.4475 12.9529 17.1811 13.1849L16.7105 13.5931L17.0092 14.1388C17.1076 14.3186 17.1586 14.5204 17.1574 14.7254C17.1574 15.0799 17.0027 15.4172 16.7363 15.6492L16.2658 16.0574L16.5645 16.6031C16.6628 16.7829 16.7139 16.9847 16.7127 17.1896C16.7127 17.6709 16.4291 18.1049 15.9908 18.3025H7.06836V12.1343L9.20605 4.38923C9.26118 4.19071 9.37951 4.01557 9.54311 3.89035C9.70671 3.76513 9.90667 3.69665 10.1127 3.69528C10.276 3.69528 10.4371 3.74255 10.566 3.83922C10.7787 3.99821 10.8926 4.23883 10.8797 4.4945L10.6734 8.757H17.4281C17.8105 8.99118 18.0469 9.38649 18.0469 9.79684C18.0469 10.1513 17.8922 10.4865 17.6258 10.7207Z" fill="#7A7B7D"/>
</svg>
