<svg width="22" height="22" viewBox="0 0 22 22" fill="none" xmlns="http://www.w3.org/2000/svg">
<g clip-path="url(#clip0_74_948)">
<path fill-rule="evenodd" clip-rule="evenodd" d="M13.7501 17.4167C13.7503 17.8792 13.5756 18.3247 13.2611 18.6639C12.9466 19.003 12.5155 19.2108 12.0543 19.2455L11.9168 19.25H10.0834C9.62091 19.2502 9.17542 19.0755 8.83627 18.761C8.49712 18.4465 8.28938 18.0154 8.25469 17.5542L8.25011 17.4167H13.7501ZM11.0001 1.83337C12.6638 1.83335 14.2625 2.47953 15.459 3.63561C16.6554 4.79169 17.3561 6.36729 17.4131 8.03004L17.4168 8.25004V11.7004L19.0869 15.0407C19.1598 15.1865 19.1963 15.3477 19.1933 15.5106C19.1902 15.6736 19.1477 15.8333 19.0694 15.9762C18.9911 16.1192 18.8793 16.241 18.7436 16.3312C18.608 16.4215 18.4524 16.4775 18.2904 16.4945L18.1849 16.5H3.81527C3.65226 16.5001 3.49166 16.4606 3.34724 16.385C3.20282 16.3094 3.07889 16.1999 2.98607 16.0659C2.89325 15.9319 2.8343 15.7773 2.81428 15.6156C2.79425 15.4538 2.81375 15.2896 2.87111 15.137L2.91327 15.0407L4.58344 11.7004V8.25004C4.58344 6.54823 5.25948 4.91613 6.46284 3.71277C7.6662 2.50941 9.2983 1.83337 11.0001 1.83337ZM11.0001 3.66671C9.81901 3.66678 8.68354 4.12279 7.83048 4.93965C6.97741 5.7565 6.47262 6.87115 6.42136 8.05112L6.41677 8.25004V11.7004C6.41678 11.9277 6.37451 12.1531 6.29211 12.365L6.22336 12.5208L5.15086 14.6667H16.8503L15.7778 12.5199C15.676 12.3166 15.6129 12.0963 15.5917 11.87L15.5834 11.7004V8.25004C15.5834 7.03446 15.1006 5.86868 14.241 5.00913C13.3815 4.14959 12.2157 3.66671 11.0001 3.66671Z" fill="#7A7B7D"/>
</g>
<defs>
<clipPath id="clip0_74_948">
<rect width="22" height="22" fill="white"/>
</clipPath>
</defs>
</svg>
