<svg width="20" height="22" viewBox="0 0 20 22" fill="none" xmlns="http://www.w3.org/2000/svg">
<path d="M9.68553 10.5157C8.85535 10.5157 8.30189 11.0692 8.30189 11.8994C8.30189 12.4528 8.71698 12.8679 9.13208 13.0063L8.71698 14.9434H10.5157L10.1006 13.0063C10.6541 12.8679 10.9308 12.4528 10.9308 11.8994C11.0692 11.0692 10.5157 10.5157 9.68553 10.5157ZM9.8239 4.56604C8.85535 4.56604 7.88679 5.25786 7.88679 6.22642V8.30189H11.6226V6.22642C11.4843 5.25786 10.7925 4.56604 9.8239 4.56604ZM9.68553 0L0 4.15094V8.30189C0.138365 14.3899 4.01258 19.7862 9.68553 22C15.3585 19.7862 19.2327 14.3899 19.3711 8.30189V4.15094L9.68553 0ZM15.2201 15.2201C15.2201 16.0503 14.6667 16.6038 13.8365 16.6038H5.53459C4.7044 16.6038 4.15094 16.0503 4.15094 15.2201V9.68553C4.15094 8.85535 4.7044 8.30189 5.53459 8.30189H5.94969V6.22642C6.08805 4.28931 7.74843 2.7673 9.68553 2.7673C11.6226 2.7673 13.283 4.28931 13.4214 6.22642V8.30189H13.8365C14.6667 8.30189 15.2201 8.85535 15.2201 9.68553V15.2201Z" fill="black"/>
</svg>
