<svg width="158" height="158" viewBox="0 0 158 158" fill="none" xmlns="http://www.w3.org/2000/svg">
<path d="M158 79C158 122.63 122.63 158 79 158C35.3695 158 0 122.63 0 79C0 35.3695 35.3695 0 79 0C122.63 0 158 35.3695 158 79Z" fill="white"/>
<path fill-rule="evenodd" clip-rule="evenodd" d="M79 150C118.212 150 150 118.212 150 79C150 39.7878 118.212 8 79 8C39.7878 8 8 39.7878 8 79C8 118.212 39.7878 150 79 150ZM79 158C122.63 158 158 122.63 158 79C158 35.3695 122.63 0 79 0C35.3695 0 0 35.3695 0 79C0 122.63 35.3695 158 79 158Z" fill="white"/>
<path fill-rule="evenodd" clip-rule="evenodd" d="M79 97C95.0163 97 108 84.0163 108 68C108 51.9837 95.0163 39 79 39C62.9837 39 50 51.9837 50 68C50 84.0163 62.9837 97 79 97ZM79 102C97.7777 102 113 86.7777 113 68C113 49.2223 97.7777 34 79 34C60.2223 34 45 49.2223 45 68C45 86.7777 60.2223 102 79 102Z" fill="#003E00"/>
<path fill-rule="evenodd" clip-rule="evenodd" d="M19.8765 121.414C36.7812 106.978 57.5844 97.1442 79.4657 97.5123C101.196 97.8778 122.118 106.352 138.73 121.466L135.366 125.164C119.616 110.836 99.8483 102.856 79.3816 102.512C59.0661 102.17 39.4037 111.313 23.1234 125.216L19.8765 121.414Z" fill="#003E00"/>
<path fill-rule="evenodd" clip-rule="evenodd" d="M79 149C117.66 149 149 117.66 149 79C149 40.3401 117.66 9 79 9C40.3401 9 9 40.3401 9 79C9 117.66 40.3401 149 79 149ZM79 154C120.421 154 154 120.421 154 79C154 37.5786 120.421 4 79 4C37.5786 4 4 37.5786 4 79C4 120.421 37.5786 154 79 154Z" fill="#003E00"/>
</svg>
