<svg width="22" height="22" viewBox="0 0 22 22" fill="none" xmlns="http://www.w3.org/2000/svg">
<path d="M12.9057 1.375C13.0513 1.375 13.1931 1.42121 13.3107 1.50695C13.4283 1.59269 13.5157 1.71355 13.5602 1.85212L14.3165 4.202C14.6341 4.35737 14.938 4.532 15.2281 4.72862L17.6426 4.20888C17.785 4.17848 17.9333 4.19406 18.0662 4.25336C18.1992 4.31267 18.3099 4.41264 18.3823 4.53888L20.2881 7.8375C20.3609 7.96366 20.3917 8.10968 20.3761 8.2545C20.3605 8.39931 20.2994 8.53544 20.2015 8.64325L18.5446 10.472C18.5687 10.8227 18.5687 11.1746 18.5446 11.5252L20.2015 13.3567C20.2994 13.4646 20.3605 13.6007 20.3761 13.7455C20.3917 13.8903 20.3609 14.0363 20.2881 14.1625L18.3823 17.4625C18.3097 17.5885 18.1989 17.6882 18.066 17.7472C17.933 17.8063 17.7848 17.8216 17.6426 17.7911L15.2281 17.2714C14.9393 17.4666 14.6341 17.6426 14.3178 17.798L13.5602 20.1479C13.5157 20.2864 13.4283 20.4073 13.3107 20.4931C13.1931 20.5788 13.0513 20.625 12.9057 20.625H9.09422C8.94866 20.625 8.80686 20.5788 8.68924 20.4931C8.57163 20.4073 8.48426 20.2864 8.43972 20.1479L7.68484 17.7994C7.36807 17.6445 7.06253 17.4676 6.77047 17.27L4.35734 17.7911C4.21498 17.8215 4.06665 17.8059 3.93371 17.7466C3.80076 17.6873 3.69008 17.5874 3.61759 17.4611L1.71184 14.1625C1.63907 14.0363 1.60824 13.8903 1.62381 13.7455C1.63938 13.6007 1.70054 13.4646 1.79847 13.3567L3.45534 11.5252C3.43134 11.1755 3.43134 10.8245 3.45534 10.4748L1.79847 8.64325C1.70054 8.53544 1.63938 8.39931 1.62381 8.2545C1.60824 8.10968 1.63907 7.96366 1.71184 7.8375L3.61759 4.5375C3.69028 4.41151 3.80105 4.31183 3.93397 4.25278C4.0669 4.19373 4.21513 4.17836 4.35734 4.20888L6.77047 4.73C7.06197 4.53338 7.36722 4.356 7.68484 4.20063L8.44109 1.85212C8.48549 1.714 8.57244 1.59346 8.68951 1.50776C8.80658 1.42205 8.94776 1.37559 9.09284 1.375H12.9043H12.9057ZM12.4025 2.75H9.59747L8.81647 5.17963L8.28984 5.43675C8.03095 5.56344 7.78104 5.70769 7.54184 5.8685L7.05509 6.1985L4.55809 5.6595L3.15559 8.0905L4.86747 9.98525L4.82622 10.5682C4.80646 10.8557 4.80646 11.1443 4.82622 11.4318L4.86747 12.0147L3.15284 13.9095L4.55672 16.3405L7.05372 15.8029L7.54047 16.1315C7.77966 16.2923 8.02958 16.4366 8.28847 16.5632L8.81509 16.8204L9.59747 19.25H12.4052L13.189 16.819L13.7142 16.5632C13.9728 16.4369 14.2223 16.2926 14.4608 16.1315L14.9462 15.8029L17.4446 16.3405L18.8471 13.9095L17.1338 12.0147L17.1751 11.4318C17.1949 11.1438 17.1949 10.8548 17.1751 10.5669L17.1338 9.98388L18.8485 8.0905L17.4446 5.6595L14.9462 6.19575L14.4608 5.8685C14.2223 5.70737 13.9728 5.5631 13.7142 5.43675L13.189 5.181L12.4038 2.75H12.4025ZM11 6.875C12.094 6.875 13.1432 7.3096 13.9168 8.08318C14.6904 8.85677 15.125 9.90598 15.125 11C15.125 12.094 14.6904 13.1432 13.9168 13.9168C13.1432 14.6904 12.094 15.125 11 15.125C9.90595 15.125 8.85674 14.6904 8.08315 13.9168C7.30956 13.1432 6.87497 12.094 6.87497 11C6.87497 9.90598 7.30956 8.85677 8.08315 8.08318C8.85674 7.3096 9.90595 6.875 11 6.875ZM11 8.25C10.2706 8.25 9.57115 8.53973 9.05542 9.05546C8.5397 9.57118 8.24997 10.2707 8.24997 11C8.24997 11.7293 8.5397 12.4288 9.05542 12.9445C9.57115 13.4603 10.2706 13.75 11 13.75C11.7293 13.75 12.4288 13.4603 12.9445 12.9445C13.4602 12.4288 13.75 11.7293 13.75 11C13.75 10.2707 13.4602 9.57118 12.9445 9.05546C12.4288 8.53973 11.7293 8.25 11 8.25Z" fill="#7A7B7D"/>
</svg>
