<svg width="26" height="21" viewBox="0 0 26 21" fill="none" xmlns="http://www.w3.org/2000/svg">
<path d="M15.6667 13.1667H19.6667M15.6667 7.83334H19.6667M9 7.16667V5.83334M9 7.16667H11.6668M9 7.16667C6.60155 7.16662 6.3358 7.74297 6.33347 8.94334C6.33112 10.1437 6.33345 10.5 9.00012 10.5C11.6668 10.5 11.6668 10.774 11.6668 12.0556C11.6668 13.0187 11.6668 13.8333 9.00012 13.8333M9.00012 13.8333L9 15.1667M9.00012 13.8333H6.33347M5.26667 19.8333H20.7333C22.2268 19.8333 22.9736 19.8333 23.544 19.5427C24.0457 19.2871 24.4537 18.8791 24.7093 18.3773C25 17.8069 25 17.0601 25 15.5667V5.43334C25 3.93987 25 3.19313 24.7093 2.6227C24.4537 2.12093 24.0457 1.71298 23.544 1.45732C22.9736 1.16667 22.2268 1.16667 20.7333 1.16667H5.26667C3.7732 1.16667 3.02645 1.16667 2.45603 1.45732C1.95425 1.71298 1.54631 2.12093 1.29065 2.6227C1 3.19313 1 3.93986 1 5.43334V15.5667C1 17.0601 1 17.8069 1.29065 18.3773C1.54631 18.8791 1.95425 19.2871 2.45603 19.5427C3.02645 19.8333 3.77319 19.8333 5.26667 19.8333Z" stroke="#003E00" stroke-width="1.5" stroke-linecap="round" stroke-linejoin="round"/>
</svg>
