<svg width="22" height="22" viewBox="0 0 22 22" fill="none" xmlns="http://www.w3.org/2000/svg">
<path d="M2.75 12.8335V9.16683C2.75 5.71008 2.75 3.98125 3.82433 2.90783C4.89775 1.8335 6.62658 1.8335 10.0833 1.8335H11.9167C15.3734 1.8335 17.1022 1.8335 18.1757 2.90783C18.7752 3.50641 19.0401 4.3085 19.1565 5.50016M19.25 9.16683V12.8335C19.25 16.2902 19.25 18.0191 18.1757 19.0925C17.1022 20.1668 15.3734 20.1668 11.9167 20.1668H10.0833C6.62658 20.1668 4.89775 20.1668 3.82433 19.0925C3.22483 18.4939 2.95992 17.6918 2.8435 16.5002M7.33333 12.8335H11.9167M7.33333 9.16683H8.25M14.6667 9.16683H11" stroke="black" stroke-width="1.5" stroke-linecap="round"/>
</svg>
