<svg width="300" height="60" viewBox="0 0 300 60" fill="none" xmlns="http://www.w3.org/2000/svg">
<path d="M247.019 8.7739C247.019 4.11458 250.796 0.337458 255.456 0.337458H291.564C296.223 0.337458 300 4.11458 300 8.7739V50.6187C300 55.278 296.223 59.0551 291.564 59.0551H255.456C250.796 59.0551 247.019 55.278 247.019 50.6187V8.7739Z" fill="#00833E"/>
<path d="M289.257 53.318L281.383 45.444V37.57L289.257 45.444V53.318Z" fill="#FFF000"/>
<path d="M297.134 45.4451H289.26L281.386 37.5711H289.26L297.134 45.4451Z" fill="#FCD300"/>
<path d="M289.259 6.07475L281.385 13.9488V21.8228L289.259 13.9488V6.07475Z" fill="#FFF000"/>
<path d="M297.134 13.9478H289.26L281.386 21.8218H289.26L297.134 13.9478Z" fill="#FCD300"/>
<path d="M257.763 6.07475L265.637 13.9488V21.8228L257.763 13.9488V6.07475Z" fill="#FFF000"/>
<path d="M249.887 13.9478H257.761L265.635 21.8218H257.761L249.887 13.9478Z" fill="#FCD300"/>
<path d="M249.887 45.4448H257.761L265.635 37.5708H257.761L249.887 45.4448Z" fill="#FCD300"/>
<path d="M257.763 53.3188L265.637 45.4448V37.5707L257.763 45.4448V53.3188Z" fill="#FFF000"/>
<path d="M265.637 13.9488L273.511 21.8228V29.6968L265.637 21.8228V13.9488Z" fill="#3A3D3D"/>
<path d="M265.637 6.0742L273.511 13.9482V21.8222L265.637 13.9482V6.0742Z" fill="#FCD300"/>
<path d="M273.51 37.5703L281.384 45.4444V53.3184L273.51 45.4444V37.5703Z" fill="#FCD300"/>
<path d="M273.51 37.5703L265.636 45.4444V53.3184L273.51 45.4444V37.5703Z" fill="#FFF000"/>
<path d="M281.383 6.0742L273.509 13.9482V21.8222L281.383 13.9482V6.0742Z" fill="#FFF000"/>
<path d="M273.51 29.6964L281.384 21.8224V13.9483L273.51 21.8224V29.6964Z" fill="#5C5957"/>
<path d="M265.637 45.444L273.511 37.57V29.696L265.637 37.57V45.444Z" fill="#5C5957"/>
<path d="M273.51 29.6964L281.384 37.5704V45.4444L273.51 37.5703V29.6964Z" fill="#3A3D3D"/>
<path d="M257.761 21.8218H265.635L273.509 29.6958H265.635L257.761 21.8218Z" fill="#5C5957"/>
<path d="M249.888 21.8218H257.762L265.636 29.6958H257.762L249.888 21.8218Z" fill="#FFF000"/>
<path d="M281.383 29.6964H289.257L297.131 37.5704H289.257L281.383 29.6964Z" fill="#FFF000"/>
<path d="M273.51 29.6964H281.384L289.258 37.5704H281.384L273.51 29.6964Z" fill="#5C5957"/>
<path d="M273.51 29.6964H281.384L289.258 21.8224H281.384L273.51 29.6964Z" fill="#D9D9D9"/>
<path d="M249.888 37.5703H257.762L265.636 29.6963H257.762L249.888 37.5703Z" fill="#FCD300"/>
<path d="M273.51 29.6964H281.384L289.258 21.8224H281.384L273.51 29.6964Z" fill="#3A3D3D"/>
<path d="M281.383 29.6964H289.257L297.131 21.8224H289.257L281.383 29.6964Z" fill="#FCD300"/>
<path d="M257.761 37.5703H265.635L273.509 29.6963H265.635L257.761 37.5703Z" fill="#3A3D3D"/>
<path fill-rule="evenodd" clip-rule="evenodd" d="M92.1839 0C87.907 0 84.0997 2.70935 82.6983 6.75006L64.7919 58.3802H83.6895L86.0517 50.6187H98.2002L100.225 58.3802H120.472L101.618 6.60443C100.174 2.63906 96.404 0 92.1839 0ZM92.4634 18.5602L99.2126 40.1575H86.3892L92.4634 18.5602Z" fill="#00833E"/>
<path fill-rule="evenodd" clip-rule="evenodd" d="M188.301 1.02984e-05V58.7177H203.502V40.1575H212.598L223.06 58.0428H238.583L228.796 40.1575H229.134C234.725 40.1575 239.258 35.6249 239.258 30.0338V13.4983C239.258 6.04341 233.214 1.02984e-05 225.759 1.02984e-05H188.301ZM203.502 11.1361H220.529C223.883 11.1361 226.603 13.8556 226.603 17.2104V24.297C226.603 27.0926 224.337 29.3588 221.541 29.3588H203.502V11.1361Z" fill="#00833E"/>
<path d="M138.695 58.7176H178.853V26.6696H154.377V36.4598H165.106V45.9127C165.106 46.2854 164.804 46.5876 164.431 46.5876H144.994C144.621 46.5876 144.319 46.2854 144.319 45.9127V14.5227C144.319 14.1473 144.625 13.8441 145 13.8478L178.853 14.1787V0.337427H138.695C132.172 0.337427 126.884 5.6254 126.884 12.1485V46.9066C126.884 53.4297 132.172 58.7176 138.695 58.7176Z" fill="#00833E"/>
<path d="M0.337458 46.5692L0 1.03286e-05L14.8481 1.03129e-05V44.8819H41.8448V1.02843e-05L57.0304 1.02682e-05V58.3802H10.6429C5.38689 58.3802 1.00506 54.3579 0.556189 49.1211L0.337458 46.5692Z" fill="#00833E"/>
<path d="M8.09899 1.02984e-05L0 1.03286e-05V8.43646L8.09899 1.02984e-05Z" fill="#FCD300"/>
</svg>
