<svg width="28" height="28" viewBox="0 0 28 28" fill="none" xmlns="http://www.w3.org/2000/svg">
<path d="M13.9999 2.33337C7.56692 2.33337 2.33325 7.56704 2.33325 14V18.8335C2.33325 20.0282 3.37975 21 4.66659 21H5.83325C6.14267 21 6.43942 20.8771 6.65821 20.6583C6.877 20.4395 6.99992 20.1428 6.99992 19.8334V13.8332C6.99992 13.5238 6.877 13.227 6.65821 13.0082C6.43942 12.7895 6.14267 12.6665 5.83325 12.6665H4.77392C5.42259 8.15154 9.30759 4.66671 13.9999 4.66671C18.6923 4.66671 22.5773 8.15154 23.2259 12.6665H22.1666C21.8572 12.6665 21.5604 12.7895 21.3416 13.0082C21.1228 13.227 20.9999 13.5238 20.9999 13.8332V21C20.9999 22.2869 19.9534 23.3334 18.6666 23.3334H16.3333V22.1667H11.6666V25.6667H18.6666C21.2403 25.6667 23.3333 23.5737 23.3333 21C24.6201 21 25.6666 20.0282 25.6666 18.8335V14C25.6666 7.56704 20.4329 2.33337 13.9999 2.33337Z" fill="#DCDCDC"/>
</svg>
