<svg width="32" height="32" viewBox="0 0 32 32" fill="none" xmlns="http://www.w3.org/2000/svg">
<path d="M2 26.5C2 24.6435 2.7375 22.863 4.05025 21.5502C5.363 20.2375 7.14348 19.5 8.99999 19.5H23C24.8565 19.5 26.637 20.2375 27.9497 21.5502C29.2625 22.863 30 24.6435 30 26.5C30 27.4282 29.6312 28.3185 28.9748 28.9749C28.3185 29.6312 27.4282 30 26.5 30H5.5C4.57174 30 3.6815 29.6312 3.02512 28.9749C2.36875 28.3185 2 27.4282 2 26.5Z" stroke="black" stroke-width="3" stroke-linejoin="round"/>
<path d="M16 12.5C18.8995 12.5 21.25 10.1495 21.25 7.24999C21.25 4.3505 18.8995 2 16 2C13.1005 2 10.75 4.3505 10.75 7.24999C10.75 10.1495 13.1005 12.5 16 12.5Z" stroke="black" stroke-width="3"/>
</svg>
