<svg width="20" height="24" viewBox="0 0 20 24" fill="none" xmlns="http://www.w3.org/2000/svg">
<path d="M8.4 0.600001C8.4 1.17 8.19 1.2 4.95 1.2C1.65 1.2 1.44 1.23 0.75 1.95L0 2.67V12.6V22.53L0.75 23.25L1.47 24H9.6H17.73L18.45 23.25L19.2 22.53V12.6V2.67L18.45 1.95C17.76 1.23 17.55 1.2 14.25 1.2C11.01 1.2 10.8 1.17 10.8 0.600001C10.8 0.0900005 10.59 5.36442e-07 9.6 5.36442e-07C8.61 5.36442e-07 8.4 0.0900005 8.4 0.600001ZM8.4 4.2C8.4 4.71 8.61 4.8 9.6 4.8C10.59 4.8 10.8 4.71 10.8 4.2C10.8 3.63 11.01 3.6 13.8 3.6H16.8V12.6V21.6H9.6H2.4V12.6V3.6H5.4C8.19 3.6 8.4 3.63 8.4 4.2Z" fill="#D64500"/>
<path d="M7.95001 9.15C7.47001 9.6 7.20001 10.23 7.20001 10.8C7.20001 11.37 7.47001 12 7.95001 12.45C8.40001 12.93 9.03001 13.2 9.60001 13.2C11.7 13.2 12.75 10.62 11.25 9.15C10.8 8.67 10.17 8.4 9.60001 8.4C9.03001 8.4 8.40001 8.67 7.95001 9.15Z" fill="#D64500"/>
<path d="M7.04999 14.85C5.63999 15.36 4.79999 16.26 4.79999 17.28V18H9.59999H14.4V17.25C14.4 15.03 10.29 13.71 7.04999 14.85Z" fill="#D64500"/>
</svg>
