<svg width="22" height="25" viewBox="0 0 22 25" fill="none" xmlns="http://www.w3.org/2000/svg">
<path d="M7.85965 1.06138C7.85965 1.59471 7.66316 1.62278 4.63158 1.62278C1.54386 1.62278 1.34737 1.65085 0.701754 2.32454L0 2.99822V12.2894V21.5807L0.701754 22.2544C1.37544 22.9561 1.45965 22.9561 6.23158 22.9561H11.0596L9.96491 21.8333L8.87018 20.7105H5.55789H2.24561V12.2894V3.8684H5.05263C7.66316 3.8684 7.85965 3.89647 7.85965 4.4298C7.85965 4.90699 8.05614 4.9912 8.98246 4.9912C9.90877 4.9912 10.1053 4.90699 10.1053 4.4298C10.1053 3.89647 10.3018 3.8684 12.9123 3.8684H15.7193V11.0824V18.2965L16.8421 17.2017L17.9649 16.107V9.56664V2.99822L17.2632 2.32454C16.6175 1.65085 16.4211 1.62278 13.3333 1.62278C10.3018 1.62278 10.1053 1.59471 10.1053 1.06138C10.1053 0.584185 9.90877 0.499975 8.98246 0.499975C8.05614 0.499975 7.85965 0.584185 7.85965 1.06138Z" fill="#00833E"/>
<path d="M7.43857 9.06142C6.98945 9.48247 6.73682 10.0719 6.73682 10.6053C6.73682 11.1386 6.98945 11.7281 7.43857 12.1491C7.85962 12.5983 8.4491 12.8509 8.98243 12.8509C10.9473 12.8509 11.9298 10.4369 10.5263 9.06142C10.1052 8.6123 9.51576 8.35966 8.98243 8.35966C8.4491 8.35966 7.85962 8.6123 7.43857 9.06142Z" fill="#00833E"/>
<path d="M6.59647 14.3947C5.27718 14.8719 4.49121 15.714 4.49121 16.6684V17.3421H8.98244H13.4737V16.6403C13.4737 14.5632 9.62805 13.3281 6.59647 14.3947Z" fill="#00833E"/>
<path d="M18.0491 19.0825L15.7193 21.4123L14.4562 20.1491C13.1088 18.8298 12.6877 18.8018 11.9579 19.9526C11.7053 20.3456 12.014 20.7947 13.6983 22.4509L15.7193 24.5L18.807 21.4123C20.4912 19.7281 21.8947 18.1842 21.8947 18.0158C21.8947 17.6509 20.9965 16.7807 20.6035 16.7807C20.4632 16.7807 19.3123 17.8193 18.0491 19.0825Z" fill="#00833E"/>
</svg>
