<svg width="22" height="15" viewBox="0 0 22 15" fill="none" xmlns="http://www.w3.org/2000/svg">
<path d="M11 4.63898C10.206 4.64401 9.44595 4.94902 8.88447 5.48797C8.32299 6.02693 8.00524 6.75646 8 7.51865C8 9.09478 9.358 10.3983 11 10.3983C12.641 10.3983 14 9.09478 14 7.51865C14 5.94347 12.641 4.63898 11 4.63898Z" fill="#01CA20"/>
<path d="M11 0.799438C3.36698 0.799438 1.07298 7.15103 1.05198 7.21534L0.945984 7.51866L1.05098 7.82199C1.07298 7.8863 3.36698 14.2379 11 14.2379C18.633 14.2379 20.927 7.8863 20.948 7.82199L21.054 7.51866L20.949 7.21534C20.927 7.15103 18.633 0.799438 11 0.799438ZM11 12.3181C5.64898 12.3181 3.57598 8.62638 3.07398 7.51866C3.57798 6.40711 5.65198 2.71922 11 2.71922C16.351 2.71922 18.424 6.41095 18.926 7.51866C18.422 8.63022 16.348 12.3181 11 12.3181Z" fill="#01CA20"/>
</svg>
